<svg xmlns="http://www.w3.org/2000/svg" width="34" height="56.999" viewBox="0 0 34 56.999">
  <path id="_-e-small_pin" data-name="-e-small_pin" d="M2267,2148h0l-.031-.055h0c-.735-1.306-13.909-24.806-16.52-36.286l0-.017c0-.017-.008-.034-.012-.051l-.007-.035c0-.01,0-.021-.007-.031s-.008-.036-.012-.054l0-.015c0-.022-.01-.043-.014-.065v-.007l-.015-.067s0-.006,0-.01a15.336,15.336,0,0,1-.367-2.744v-.013c0-.069,0-.138,0-.205q0-.15,0-.3v-.016q.012-.737.085-1.458h0l.01-.1c0-.007,0-.015,0-.022,0-.027.006-.055.009-.083l0-.036c0-.021,0-.044.007-.065s0-.032.005-.048.006-.042.008-.063,0-.03.005-.044.006-.041.008-.061,0-.033.006-.051,0-.037.008-.055.005-.042.008-.062,0-.026.005-.039l.01-.07q0-.02.006-.04l.01-.071,0-.029c0-.029.008-.056.013-.083,0-.007,0-.014,0-.02.006-.032.011-.062.016-.093a.06.06,0,0,0,0-.009c.006-.032.011-.065.017-.1a.02.02,0,0,0,0-.007,17.179,17.179,0,0,1,13.971-14.089h0l.1-.017h.012l.094-.016h.007l.1-.015.016,0,.088-.013.02,0,.083-.012.026,0,.083-.011h.012l.091-.011.025,0,.079-.009.028,0,.079-.008.028,0,.078-.008.031,0,.074-.007.037,0,.07-.007.033,0,.075-.006.033,0,.072-.005.043,0,.063,0,.05,0,.057,0,.05,0,.059,0,.047,0,.061,0,.047,0,.061,0,.047,0,.063,0h.036l.071,0h.046l.063,0h.033l.076,0H2267a17.175,17.175,0,0,1,17,17.343c0,9.583-17,39.656-17,39.656Zm0-30.991a8.53,8.53,0,0,0,8.505-8.555v-.239a8.5,8.5,0,1,0-17,0v.239A8.525,8.525,0,0,0,2267,2117.007Z" transform="translate(-2249.999 -2091)" fill="gray"/>
</svg>
