<svg xmlns="http://www.w3.org/2000/svg" width="140" height="140" viewBox="0 0 140 140">
  <path id="insta_2" d="M69.909,140c-17.892,0-36.2-.975-36.967-1.016h-.009c-9.278-1.031-16.753-4.376-22.217-9.94-5.351-5.448-8.615-12.854-9.7-22.01v-.008C.973,106.253,0,87.917,0,69.956c0-17.91.973-36.209,1.015-36.98v-.009C2.773,14.725,14.7,2.781,32.933,1.017h.009C33.721.975,52.235,0,70.249,0c17.815,0,35.9.975,36.666,1.017h.008a39.049,39.049,0,0,1,12.821,2.956,30.25,30.25,0,0,1,9.734,6.625,31.128,31.128,0,0,1,6.437,9.821,40.875,40.875,0,0,1,2.924,12.549c.012.182,1.161,18.4,1.161,36.769,0,18.536-1.149,37.111-1.161,37.3-.831,8.9-4.219,16.564-9.8,22.169-5.6,5.627-13.249,9.009-22.119,9.781h-.009C106.143,139.024,87.83,140,69.909,140ZM70,37.823a32.111,32.111,0,1,0,32.11,32.11A32.147,32.147,0,0,0,70,37.823Zm36.265-13.967a9.609,9.609,0,1,0,9.609,9.608A9.619,9.619,0,0,0,106.266,23.855Z" fill="#ffac0f"/>
</svg>
