<svg xmlns="http://www.w3.org/2000/svg" width="140" height="140" viewBox="0 0 140 140">
  <path id="linked_2" d="M125.908,197.013c-9.552,0-19.1-.276-25.423-.508C93.62,196.253,88.978,196,88.932,196a46.557,46.557,0,0,1-6.694-1.228,38.077,38.077,0,0,1-5.941-2.09,32.874,32.874,0,0,1-5.178-2.916,30.558,30.558,0,0,1-4.405-3.706,30.9,30.9,0,0,1-3.623-4.46,33.847,33.847,0,0,1-2.831-5.179,39.49,39.49,0,0,1-2.029-5.862,48.006,48.006,0,0,1-1.218-6.509c0-.046-.256-4.7-.508-11.589-.232-6.344-.508-15.915-.508-25.488,0-9.557.276-19.106.508-25.433.251-6.867.505-11.51.508-11.557a40.021,40.021,0,0,1,3.112-12.307A31.639,31.639,0,0,1,76.376,61.256a37.037,37.037,0,0,1,5.939-2.074,43.218,43.218,0,0,1,6.617-1.152c.047,0,4.74-.256,11.682-.508,6.39-.232,16.025-.508,25.635-.508,9.5,0,18.965.276,25.233.508,6.805.252,11.4.506,11.441.508a42.932,42.932,0,0,1,6.783.99,35.744,35.744,0,0,1,6.038,1.966,31.39,31.39,0,0,1,5.267,2.883,29.555,29.555,0,0,1,4.469,3.741,31.141,31.141,0,0,1,6.436,9.822,40.865,40.865,0,0,1,2.924,12.548c0,.046.294,4.673.58,11.474.168,4,.3,7.961.4,11.775.12,4.767.181,9.316.181,13.519,0,4.244-.061,8.845-.181,13.676-.1,3.865-.231,7.886-.4,11.949-.287,6.913-.577,11.625-.58,11.672a39.449,39.449,0,0,1-3.152,12.4,32.49,32.49,0,0,1-6.646,9.765,32.12,32.12,0,0,1-9.726,6.668A38.528,38.528,0,0,1,162.921,196c-.046,0-4.687.256-11.568.508C145.021,196.737,135.466,197.013,125.908,197.013ZM116.943,110.8v50.715h15.044V133.621a12.271,12.271,0,0,1,.681-4.127,9.7,9.7,0,0,1,1.89-3.232,8.462,8.462,0,0,1,2.869-2.107,8.792,8.792,0,0,1,3.617-.753,8.452,8.452,0,0,1,6.547,2.556,8.75,8.75,0,0,1,1.651,2.708,12.6,12.6,0,0,1,.723,2.772,14.352,14.352,0,0,1,.137,3.029v26.894h15.5V130.317c0-13.38-6.658-21.054-18.268-21.054a18.912,18.912,0,0,0-7.029,1.3,17.465,17.465,0,0,0-7.467,5.705,11.026,11.026,0,0,0-.855,1.3V110.8Zm-25.636,0v50.715h15.658V110.8Zm7.829-25.2a9.221,9.221,0,1,0,9.211,9.221A9.226,9.226,0,0,0,99.135,85.6Z" transform="translate(-55.999 -57.013)" fill="#ffac0f"/>
</svg>
