<svg xmlns="http://www.w3.org/2000/svg" width="140.156" height="140" viewBox="0 0 140.156 140">
  <g id="mail_2" transform="translate(-55.999 -57.013)">
    <g id="Rounded_Rectangle_5" data-name="Rounded Rectangle 5" fill="none">
      <path d="M88.968,58.03s18.733-1.017,37.358-1.017c18.41,0,36.714,1.017,36.714,1.017,19.079,1.287,30.488,13.61,31.953,31.95,0,0,1.162,18.341,1.162,36.769,0,18.6-1.162,37.3-1.162,37.3C193.3,182.14,181.179,194.418,163.04,196c0,0-18.53,1.017-37.054,1.017S88.968,196,88.968,196c-18.866-2.1-29.794-13.762-31.953-31.95,0,0-1.017-18.546-1.017-37.077,0-18.5,1.017-36.99,1.017-36.99C58.745,72.044,70.431,59.822,88.968,58.03Z" stroke="none"/>
      <path d="M 126.3259811401367 72.01290893554688 C 108.6859130859375 72.01290893554688 90.65293884277344 72.96089172363281 90.40632629394531 72.96089172363281 C 90.40339660644531 72.96089172363281 90.4029541015625 72.96075439453125 90.40507507324219 72.96047973632812 C 79.39031982421875 74.02761840820312 73.00810241699219 80.41020202636719 71.99290466308594 90.80252075195312 C 71.98291015625 90.98367309570312 70.99905395507812 109.1194458007812 70.99905395507812 126.9690628051758 C 70.99905395507812 144.4845581054688 71.94357299804688 162.3012847900391 71.91410827636719 162.3012847900391 C 71.91397094726562 162.3012847900391 71.913818359375 162.3008728027344 71.91363525390625 162.3001403808594 C 73.31005859375 174.0119018554688 79.08059692382812 179.8063354492188 89.79020690917969 181.0190734863281 C 89.97137451171875 181.0286865234375 108.1259765625 182.0129089355469 125.9859848022461 182.0129089355469 C 143.6412048339844 182.0129089355469 161.5963287353516 181.0524597167969 161.7425384521484 181.0524597167969 C 161.7438812255859 181.0524597167969 161.7437286376953 181.0525512695312 161.7420349121094 181.0527038574219 C 172.5320129394531 180.1128540039062 179.0364379882812 173.5776519775391 180.0213623046875 163.1163635253906 C 180.0325317382812 162.9336853027344 181.1544494628906 144.6425170898438 181.1544494628906 126.7486801147461 C 181.1544494628906 109.0714874267578 180.0377807617188 91.17387390136719 180.0401916503906 91.17387390136719 C 180.0401916503906 91.17387390136719 180.0401916503906 91.17393493652344 180.0402221679688 91.17405700683594 C 179.1236724853516 79.69752502441406 173.2325134277344 73.75137329101562 162.2094421386719 73.00636291503906 C 162.0298309326172 72.99636840820312 144.079833984375 72.01290893554688 126.3259811401367 72.01290893554688 M 126.3259811401367 57.01290893554688 C 144.7359924316406 57.01290893554688 163.0402221679688 58.02944946289062 163.0402221679688 58.02944946289062 C 182.1194458007812 59.31675720214844 193.5279083251953 71.63983154296875 194.9925231933594 89.97982788085938 C 194.9925231933594 89.97982788085938 196.1544494628906 108.3206024169922 196.1544494628906 126.7486801147461 C 196.1544494628906 145.3529052734375 194.9925231933594 164.0459899902344 194.9925231933594 164.0459899902344 C 193.3013610839844 182.1398315429688 181.179443359375 194.4179077148438 163.0402221679688 195.9963684082031 C 163.0402221679688 195.9963684082031 144.5098266601562 197.0129089355469 125.9859848022461 197.0129089355469 C 107.4740600585938 197.0129089355469 88.96829223632812 195.9963684082031 88.96829223632812 195.9963684082031 C 70.10214233398438 193.9013671875 59.1744384765625 182.2344360351562 57.01559448242188 164.0459899902344 C 57.01559448242188 164.0459899902344 55.99905395507812 145.5002136230469 55.99905395507812 126.9690628051758 C 55.99905395507812 108.4671325683594 57.01559448242188 89.97982788085938 57.01559448242188 89.97982788085938 C 58.74520874023438 72.04367065429688 70.43098449707031 59.82176208496094 88.96829223632812 58.02944946289062 C 88.96829223632812 58.02944946289062 107.7013702392578 57.01290893554688 126.3259811401367 57.01290893554688 Z" stroke="none" fill="#ffac0f"/>
    </g>
    <path id="Rounded_Rectangle_5_copy" data-name="Rounded Rectangle 5 copy" d="M244.874,151.439,185.329,206.85,126.01,151.592" transform="translate(-59.252 -79.914)" fill="none" stroke="#ffac0f" stroke-width="15"/>
  </g>
</svg>
