<svg xmlns="http://www.w3.org/2000/svg" width="140" height="140" viewBox="0 0 140 140">
  <path id="twitter_2" d="M69.906,140c-9.784,0-19.635-.284-26.176-.523-6.039-.22-10.428-.441-12.034-.525l-.09,0c-8.848-.986-15.955-4.115-21.126-9.3s-8.352-12.384-9.433-21.377c-.03-.56-.3-5.677-.553-12.834C.167,86.183,0,77.609,0,69.954,0,60.141.284,50.3.522,43.765c.262-7.19.528-12.085.53-12.125A38.077,38.077,0,0,1,4.09,19.75,30.4,30.4,0,0,1,19.775,4.091,38.45,38.45,0,0,1,31.722,1.044l.115-.005h.02C33.624.947,38.433.711,44.906.485,54.123.163,62.652,0,70.259,0c9.733,0,19.5.284,25.981.523,7.173.264,11.959.528,12,.53a42.136,42.136,0,0,1,6.407.916,34.625,34.625,0,0,1,5.737,1.816,30.093,30.093,0,0,1,5.031,2.684,27.784,27.784,0,0,1,7.809,7.832,30.916,30.916,0,0,1,2.712,5.082,36.2,36.2,0,0,1,1.87,5.814,44.24,44.24,0,0,1,.995,6.512l0,.018c.076,1.241.345,5.794.614,12.287.17,4.095.3,8.143.4,12.032.121,4.833.182,9.435.182,13.678,0,4.332-.063,9.055-.186,14.036-.1,4.007-.238,8.158-.41,12.336-.276,6.7-.551,11.355-.6,12.22v.022a37.51,37.51,0,0,1-3.043,11.889A30.732,30.732,0,0,1,120,135.974a36.889,36.889,0,0,1-11.849,2.98l-.075,0c-1.316.069-6.124.313-12.72.547C86.1,139.834,77.533,140,69.906,140ZM31.019,100.832h0a50,50,0,0,0,8.282,4.03A58.455,58.455,0,0,0,60.124,108.9h.006a50.073,50.073,0,0,0,25.819-7.142,50.994,50.994,0,0,0,23.282-30A54.077,54.077,0,0,0,111.488,54.2c.035-.019,3.655-2.053,9.327-9.652C114.22,47.333,110.44,47.42,110.4,47.42a27.047,27.047,0,0,0,3.477-2.969c1.651-1.67,3.743-4.26,4.331-7.117l-.014.01c-.747.411-7.428,4.03-11.806,4.437-1.97-2.879-7.076-5.793-13.025-5.793a19.685,19.685,0,0,0-10.184,2.919A17.083,17.083,0,0,0,75.2,50.87a22.381,22.381,0,0,0-.095,7.774A46.208,46.208,0,0,1,62.325,56.4a53.352,53.352,0,0,1-10.877-4.945,52.015,52.015,0,0,1-14.3-12.227,17.748,17.748,0,0,0-1.552,14.749,21.323,21.323,0,0,0,3.219,6.4,11.217,11.217,0,0,0,4.027,3.581,14.756,14.756,0,0,1-6.27-1.3,8.632,8.632,0,0,1-2.081-1.3A18.232,18.232,0,0,0,35.9,68.92c1.534,3.71,5.055,8.627,13.122,10.98a12.573,12.573,0,0,1-4.3.607,27.643,27.643,0,0,1-3.834-.281A18.575,18.575,0,0,0,44.3,86.353a18.868,18.868,0,0,0,13.828,6.778C49.866,99.981,39.773,101,34.493,101A29.955,29.955,0,0,1,31.019,100.832Z" fill="#ffac0f"/>
</svg>
